<svg width="12" height="12" viewBox="0 0 12 12" fill="none" xmlns="http://www.w3.org/2000/svg">
<g clip-path="url(#clip0_1_403)">
<path d="M0.0269414 0.320795C0.113713 0.070808 0.38412 -0.0606019 0.630919 0.0272926L0.821275 0.09508C1.21065 0.233732 1.54137 0.351496 1.80163 0.480852C2.07991 0.619165 2.31855 0.789555 2.49803 1.0556C2.67612 1.31958 2.74965 1.60921 2.78359 1.92676C2.79878 2.06892 2.80679 2.22625 2.81101 2.3992H9.52978C10.594 2.3992 11.5519 2.3992 11.8323 2.76838C12.1127 3.13757 12.0031 3.69384 11.7839 4.80639L11.4682 6.35762C11.2692 7.33572 11.1697 7.82474 10.8212 8.11237C10.4728 8.4 9.97984 8.4 8.99395 8.4H5.64479C3.88339 8.4 3.0027 8.4 2.4555 7.8154C1.9083 7.23074 1.86837 6.60974 1.86837 4.72787V3.06346C1.86837 2.59008 1.86773 2.27327 1.84173 2.03003C1.81689 1.79758 1.77287 1.68152 1.71586 1.59701C1.66025 1.51458 1.57583 1.43753 1.38431 1.34235C1.18042 1.24101 0.903316 1.1415 0.481673 0.991336L0.3167 0.932582C0.0699008 0.844694 -0.0598239 0.570788 0.0269414 0.320795Z" fill="white"/>
<path d="M2.99999 10.8C3.33137 10.8 3.59999 11.0687 3.59999 11.4C3.59999 11.7314 3.33137 12 2.99999 12C2.66862 12 2.39999 11.7314 2.39999 11.4C2.39999 11.0687 2.66862 10.8 2.99999 10.8Z" fill="white"/>
<path d="M10.2 10.8C10.5314 10.8 10.8 11.0686 10.8 11.4C10.8 11.7314 10.5314 12 10.2 12C9.86865 12 9.60001 11.7314 9.60001 11.4C9.60001 11.0686 9.86865 10.8 10.2 10.8Z" fill="white"/>
</g>
<defs>
<clipPath id="clip0_1_403">
<rect width="12" height="12" fill="white"/>
</clipPath>
</defs>
</svg>
