<svg width="97" height="96" viewBox="0 0 97 96" fill="none" xmlns="http://www.w3.org/2000/svg">
<circle cx="48.3334" cy="48" r="47" stroke="#F97400" stroke-width="2"/>
<path d="M43.2861 40.3262L44.5723 44.9815C45.7848 49.3703 46.391 51.5648 48.1735 52.563C49.9557 53.561 52.2185 52.973 56.7435 51.797L61.5433 50.5498C66.0685 49.3738 68.331 48.7858 69.3603 47.0568C70.3893 45.328 69.783 43.1336 68.5705 38.7447L67.2845 34.0895C66.072 29.7006 65.4658 27.5061 63.6833 26.508C61.9008 25.5099 59.638 26.0979 55.113 27.2739L50.3133 28.5212C45.788 29.6972 43.5255 30.2852 42.4964 32.0141C41.4673 33.7429 42.0736 35.9373 43.2861 40.3262Z" fill="#F97400"/>
<path d="M25.0687 31.6173C25.3456 30.6195 26.3789 30.035 27.3768 30.3119L31.636 31.4936C33.9282 32.1296 35.7423 33.8966 36.3751 36.1872L41.7527 55.6522L42.1484 57.0187C43.7312 57.6095 45.0908 58.7165 45.9535 60.1867L46.7285 59.9475L68.9038 54.1847C69.906 53.9242 70.9298 54.5255 71.1903 55.5277C71.4508 56.53 70.8493 57.5535 69.847 57.814L47.7538 63.5557L46.932 63.8095C46.9153 66.9867 44.723 69.8887 41.4059 70.7507C37.4297 71.784 33.3427 69.4955 32.2773 65.639C31.2119 61.7825 33.5715 57.8185 37.5477 56.7852C37.7448 56.734 37.9421 56.691 38.1393 56.6557L32.7605 37.1858C32.4898 36.206 31.6974 35.4023 30.6335 35.1071L26.3742 33.9254C25.3764 33.6485 24.7919 32.6152 25.0687 31.6173Z" fill="#F97400"/>
</svg>
