<svg width="52" height="50" viewBox="0 0 52 50" fill="none" xmlns="http://www.w3.org/2000/svg">
<path d="M27.3226 17.6671C27.3226 17.9542 27.3226 18.89 27.3226 20.2196H31.7295L31.2517 24.2945H27.3226C27.3226 30.5788 27.3226 39 27.3226 39H22.1074C22.1074 39 22.1074 30.6902 22.1074 24.2945H19.3899V20.2196H22.1074C22.1074 18.6036 22.1074 17.4545 22.1074 17.1345C22.1074 15.6102 21.9967 14.8869 22.6211 13.7056C23.2459 12.5244 25.0081 10.9631 28.0561 11.0007C31.1048 11.0396 32.3899 11.3438 32.3899 11.3438L31.7295 15.6867C31.7295 15.6867 29.7828 15.1535 28.8272 15.3435C27.8729 15.5336 27.3226 16.1434 27.3226 17.6671Z" fill="white"/>
<path d="M1.69495 25C1.69495 12.2951 12.4361 2 25.6949 2C38.9522 2 49.6949 12.2951 49.6949 25C49.6949 37.7049 38.9538 48 25.6949 48C12.4377 48 1.69495 37.7049 1.69495 25Z" stroke="white" stroke-width="2"/>
</svg>
