<svg width="97" height="96" viewBox="0 0 97 96" fill="none" xmlns="http://www.w3.org/2000/svg">
<circle cx="48.6666" cy="48" r="47" stroke="#F97400" stroke-width="2"/>
<path d="M71.0498 57.6625L72.8135 47.463C73.254 44.9155 71.295 42.5855 68.7125 42.5855H55.7598C54.476 42.5855 53.4985 41.4332 53.7063 40.165L55.363 30.0536C55.632 28.4109 55.5553 26.73 55.1373 25.1188C54.791 23.7841 53.7613 22.7124 52.407 22.2773L52.0445 22.1609C51.226 21.898 50.3328 21.9591 49.561 22.331C48.7118 22.7403 48.0903 23.4868 47.86 24.3747L46.6708 28.9594C46.2923 30.4181 45.7413 31.8261 45.0305 33.1566C43.9921 35.1004 42.3866 36.6562 40.7178 38.0942L37.121 41.1937C36.1068 42.0678 35.5742 43.3765 35.6896 44.711L37.72 68.1928C37.9063 70.3465 39.707 72 41.8665 72H53.488C62.1913 72 69.6188 65.936 71.0498 57.6625Z" fill="#F97400"/>
<path fill-rule="evenodd" clip-rule="evenodd" d="M27.7942 40.7127C28.7973 40.6694 29.6565 41.4241 29.743 42.4245L32.172 70.5158C32.3281 72.3203 30.9067 73.8755 29.0918 73.8755C27.3822 73.8755 26 72.4885 26 70.7823V42.586C26 41.5819 26.791 40.756 27.7942 40.7127Z" fill="#F97400"/>
</svg>
