<svg width="126" height="80" viewBox="0 0 126 80" fill="none" xmlns="http://www.w3.org/2000/svg">
<path fill-rule="evenodd" clip-rule="evenodd" d="M106.008 16.0825C105.937 15.5236 106.332 15.0127 106.891 14.9414C107.45 14.87 107.961 15.2652 108.032 15.8241L108.966 23.1434C108.979 23.2443 109.066 23.3195 109.167 23.3221C109.264 23.3246 109.35 23.2609 109.373 23.1673L111.149 16.0521C111.303 15.4383 111.924 15.0649 112.538 15.2182C113.152 15.3714 113.525 15.9932 113.372 16.6071L111.608 23.674C111.583 23.7732 111.634 23.8754 111.727 23.9182C111.819 23.9604 111.928 23.9339 111.988 23.8525L116.301 17.9826C116.675 17.4728 117.392 17.3632 117.902 17.7378C118.412 18.1124 118.522 18.8293 118.147 19.3392L113.881 25.1449C113.795 25.2624 113.806 25.4243 113.903 25.5334C114 25.6436 114.162 25.6737 114.29 25.5998L120.473 22.0142C121.02 21.6968 121.721 21.8832 122.038 22.4305C122.356 22.9778 122.169 23.6787 121.622 23.9961L115.418 27.5936C115.284 27.6716 115.224 27.8328 115.269 27.9817C115.316 28.139 115.468 28.2442 115.631 28.2234L122.895 27.2962C123.453 27.2248 123.964 27.62 124.036 28.1789C124.107 28.7378 123.712 29.2487 123.153 29.32L115.756 30.2644C115.628 30.2806 115.531 30.3857 115.519 30.5135C115.506 30.6465 115.588 30.771 115.717 30.8065L122.748 32.7479C123.358 32.9163 123.716 33.5471 123.548 34.157C123.379 34.7668 122.749 35.1247 122.139 34.9563L114.92 32.9631C114.848 32.9432 114.772 32.9763 114.735 33.0418C114.697 33.1115 114.714 33.1993 114.777 33.248L120.701 37.8306C121.201 38.2177 121.293 38.9372 120.906 39.4376C120.519 39.938 119.799 40.0298 119.299 39.6427L113.278 34.9849C113.226 34.9451 113.154 34.9465 113.104 34.9874C113.05 35.0309 113.035 35.1071 113.069 35.1671L116.868 41.7641C117.183 42.3123 116.995 43.0127 116.447 43.3284C115.898 43.6441 115.198 43.4556 114.882 42.9073L111.064 36.2764C111.015 36.1903 110.912 36.1506 110.817 36.1782C110.714 36.2077 110.647 36.3066 110.66 36.4123L111.649 44.1581C111.72 44.717 111.325 45.2279 110.766 45.2992C110.207 45.3706 109.697 44.9753 109.625 44.4165L108.616 36.514C108.61 36.4633 108.568 36.4246 108.517 36.421C108.465 36.4173 108.418 36.4511 108.405 36.5016L106.514 44.0771C106.361 44.6909 105.739 45.0643 105.125 44.911C104.511 44.7578 104.138 44.136 104.291 43.5221L106.197 35.8907C106.207 35.8503 106.187 35.8084 106.149 35.7903C106.111 35.772 106.065 35.7831 106.04 35.8172L101.383 42.1558C101.008 42.6656 100.291 42.7752 99.7815 42.4006C99.2717 42.026 99.162 41.3091 99.5366 40.7992L104.153 34.5157C104.203 34.4485 104.197 34.3558 104.14 34.2942C104.085 34.2334 103.995 34.2183 103.924 34.2595L97.1292 38.1996C96.5819 38.517 95.881 38.3306 95.5636 37.7833C95.2462 37.236 95.4326 36.5351 95.9799 36.2177L102.724 32.3066C102.805 32.2597 102.84 32.1614 102.809 32.0732C102.778 31.987 102.692 31.9321 102.601 31.9437L94.8189 32.9372C94.2601 33.0086 93.7492 32.6133 93.6778 32.0545C93.6065 31.4956 94.0017 30.9847 94.5606 30.9134L102.228 29.9345C102.344 29.9197 102.43 29.8201 102.433 29.7033C102.436 29.5946 102.366 29.4972 102.261 29.4683L94.8467 27.4211C94.2368 27.2527 93.8789 26.6219 94.0473 26.012C94.2157 25.4022 94.8466 25.0443 95.4564 25.2127L102.852 27.2545C102.917 27.2725 102.985 27.2396 103.013 27.1781C103.039 27.1202 103.023 27.0517 102.973 27.0129L96.9045 22.3187C96.4041 21.9316 96.3123 21.2122 96.6994 20.7118C97.0865 20.2114 97.8059 20.1195 98.3063 20.5066L104.273 25.122C104.337 25.1718 104.428 25.1661 104.487 25.1102C104.543 25.0577 104.556 24.974 104.518 24.9078L100.754 18.3711C100.438 17.8228 100.627 17.1225 101.175 16.8068C101.723 16.4911 102.424 16.6796 102.739 17.2279L106.402 23.5885C106.472 23.7099 106.62 23.7607 106.751 23.713C106.879 23.6671 106.96 23.5403 106.943 23.4063L106.008 16.0825Z" fill="#FFB829"/>
<path d="M91.9176 47.544V29.2164H96.6044V36.2117H104.019V29.2164H108.706V47.544H104.019V40.129H96.6044V47.544H91.9176Z" fill="#3A4659"/>
<path d="M80.8779 47.8937C79.4089 47.8937 78.0798 47.6489 76.8906 47.1592C75.7014 46.6462 74.6871 45.9584 73.8477 45.0956C73.0083 44.2096 72.3554 43.2069 71.889 42.0877C71.446 40.9451 71.2245 39.7443 71.2245 38.4851C71.2245 36.7363 71.6092 35.139 72.3787 33.6934C73.1715 32.2477 74.2907 31.0935 75.7364 30.2307C77.2054 29.3446 78.9309 28.9016 80.9129 28.9016C82.9182 28.9016 84.632 29.3446 86.0544 30.2307C87.4768 31.0935 88.561 32.2477 89.3072 33.6934C90.0767 35.1157 90.4614 36.6547 90.4614 38.3102C90.4614 38.59 90.4498 38.8815 90.4264 39.1846C90.4031 39.4644 90.3798 39.6976 90.3565 39.8842H76.1911C76.2844 40.8169 76.5525 41.633 76.9956 42.3325C77.4619 43.032 78.0449 43.5683 78.7444 43.9414C79.4672 44.2912 80.2367 44.466 81.0528 44.466C81.9855 44.466 82.8599 44.2445 83.676 43.8015C84.5155 43.3351 85.0867 42.7289 85.3899 41.9827L89.4121 43.102C88.9691 44.0347 88.3279 44.8624 87.4884 45.5853C86.6723 46.3081 85.7047 46.8794 84.5854 47.2991C83.4662 47.6955 82.2303 47.8937 80.8779 47.8937ZM76.0862 36.9112H85.6697C85.5764 35.9785 85.3083 35.174 84.8652 34.4978C84.4455 33.7983 83.8859 33.262 83.1864 32.8889C82.4868 32.4925 81.7057 32.2943 80.843 32.2943C80.0035 32.2943 79.234 32.4925 78.5345 32.8889C77.8583 33.262 77.2987 33.7983 76.8557 34.4978C76.4359 35.174 76.1795 35.9785 76.0862 36.9112Z" fill="#3A4659"/>
<path d="M48.2286 47.544V29.2164H53.1253L58.8614 39.8142L64.6325 29.2164H69.4592V47.544H65.0172V35.687L60.3304 44.2912H57.3924L52.6706 35.687V47.544H48.2286Z" fill="#3A4659"/>
<path d="M37.2052 47.8937C35.5497 47.8937 34.104 47.5789 32.8681 46.9494C31.6323 46.2965 30.618 45.4104 29.8252 44.2912C29.0557 43.1486 28.5427 41.8661 28.2863 40.4438H25.4182V47.544H20.7314V29.2164H25.4182V36.3516H28.2863C28.5427 34.9059 29.0557 33.6234 29.8252 32.5042C30.618 31.3616 31.644 30.4755 32.9031 29.846C34.1623 29.2164 35.5963 28.9016 37.2052 28.9016C39.1872 28.9016 40.866 29.333 42.2418 30.1957C43.6175 31.0585 44.6668 32.2127 45.3896 33.6584C46.1358 35.0808 46.5089 36.6663 46.5089 38.4152C46.5089 40.164 46.1358 41.7612 45.3896 43.2069C44.6435 44.6293 43.5825 45.7718 42.2068 46.6346C40.8311 47.474 39.1639 47.8937 37.2052 47.8937ZM37.2052 43.9064C38.0913 43.9064 38.8724 43.6733 39.5486 43.2069C40.2248 42.7406 40.7495 42.0993 41.1225 41.2832C41.4956 40.4671 41.6822 39.5111 41.6822 38.4152C41.6822 37.2726 41.484 36.2933 41.0876 35.4771C40.7145 34.6377 40.1898 33.9965 39.5136 33.5535C38.8374 33.1104 38.0679 32.8889 37.2052 32.8889C36.3658 32.8889 35.608 33.1221 34.9317 33.5884C34.2789 34.0315 33.7659 34.6727 33.3928 35.5121C33.0197 36.3282 32.8332 37.2959 32.8332 38.4152C32.8332 39.5344 33.0197 40.5137 33.3928 41.3532C33.7659 42.1693 34.2789 42.7988 34.9317 43.2419C35.608 43.6849 36.3658 43.9064 37.2052 43.9064Z" fill="#3A4659"/>
<path d="M0 47.7888V43.6266C0.55962 43.6033 1.06095 43.4634 1.50398 43.2069C1.94701 42.9504 2.33175 42.519 2.6582 41.9128C3.00796 41.2832 3.27611 40.4088 3.46265 39.2896C3.67251 38.1703 3.81241 36.7363 3.88236 34.9875L4.1272 29.2164H17.8729V47.544H13.186V33.3086H8.25439L8.18444 35.4422C8.09117 37.8439 7.858 39.8375 7.48492 41.4231C7.11184 43.0087 6.58719 44.2678 5.91099 45.2006C5.2581 46.1099 4.44198 46.7628 3.46265 47.1592C2.48331 47.5556 1.3291 47.7655 0 47.7888Z" fill="#3A4659"/>
</svg>
