<svg width="96" height="96" viewBox="0 0 96 96" fill="none" xmlns="http://www.w3.org/2000/svg">
<circle cx="48" cy="48" r="47" stroke="#F97400" stroke-width="2"/>
<path d="M46.4447 24.1069C46.987 22.6747 49.013 22.6747 49.5553 24.1069L51.101 28.1883C51.5221 29.3002 52.9402 29.6239 53.8021 28.8048L56.9655 25.7982C58.0756 24.7432 59.9009 25.6222 59.7681 27.1479L59.3899 31.4957C59.2868 32.6803 60.424 33.5872 61.556 33.2231L65.7107 31.8869C67.1685 31.418 68.4317 33.0019 67.6501 34.3189L65.4229 38.0721C64.8161 39.0946 65.4472 40.4051 66.625 40.5682L70.948 41.1669C72.4649 41.377 72.9157 43.3522 71.6402 44.1996L68.005 46.6147C67.0147 47.2727 67.0147 48.7273 68.005 49.3853L71.6402 51.8004C72.9157 52.6478 72.4649 54.623 70.948 54.8331L66.625 55.4318C65.4472 55.5949 64.8161 56.9054 65.4229 57.9279L67.6501 61.6811C68.4317 62.9981 67.1685 64.582 65.7107 64.1131L61.556 62.7769C60.4241 62.4128 59.2868 63.3197 59.3899 64.5043L59.7681 68.8521C59.9009 70.3778 58.0756 71.2568 56.9655 70.2018L53.8021 67.1952C52.9402 66.3761 51.5221 66.6998 51.101 67.8117L49.5553 71.8931C49.013 73.3253 46.987 73.3253 46.4447 71.8931L44.899 67.8117C44.4779 66.6998 43.0598 66.3761 42.1979 67.1952L39.0345 70.2018C37.9244 71.2568 36.0991 70.3778 36.2319 68.8521L36.6101 64.5043C36.7132 63.3197 35.5759 62.4128 34.444 62.7769L30.2893 64.1131C28.8315 64.582 27.5683 62.9981 28.3499 61.6811L30.5771 57.9279C31.1839 56.9054 30.5528 55.5949 29.375 55.4318L25.052 54.8331C23.5351 54.623 23.0843 52.6478 24.3598 51.8004L27.995 49.3853C28.9853 48.7273 28.9853 47.2727 27.995 46.6147L24.3598 44.1996C23.0843 43.3522 23.5351 41.377 25.052 41.1669L29.375 40.5682C30.5528 40.4051 31.1839 39.0946 30.5771 38.0721L28.3499 34.3189C27.5683 33.0019 28.8315 31.418 30.2893 31.8869L34.444 33.2231C35.5759 33.5872 36.7132 32.6803 36.6101 31.4957L36.2319 27.1479C36.0991 25.6222 37.9244 24.7432 39.0345 25.7982L42.1979 28.8048C43.0598 29.6239 44.4779 29.3002 44.899 28.1883L46.4447 24.1069Z" fill="#F97400"/>
</svg>
