<svg width="50" height="50" viewBox="0 0 50 50" fill="none" xmlns="http://www.w3.org/2000/svg">
<path d="M23.4447 1.10688C23.987 -0.325255 26.013 -0.325258 26.5553 1.10688L28.101 5.18829C28.5221 6.30024 29.9402 6.62391 30.8021 5.80479L33.9655 2.79822C35.0756 1.74323 36.9009 2.62224 36.7681 4.14788L36.3899 8.49574C36.2868 9.68029 37.424 10.5872 38.556 10.2231L42.7107 8.88688C44.1685 8.418 45.4317 10.0019 44.6501 11.3189L42.4229 15.0721C41.8161 16.0946 42.4472 17.4051 43.625 17.5682L47.948 18.1669C49.4649 18.377 49.9157 20.3522 48.6402 21.1996L45.005 23.6147C44.0147 24.2727 44.0147 25.7273 45.005 26.3853L48.6402 28.8004C49.9157 29.6478 49.4649 31.623 47.948 31.8331L43.625 32.4318C42.4472 32.5949 41.8161 33.9054 42.4229 34.9279L44.6501 38.6811C45.4317 39.9981 44.1685 41.582 42.7107 41.1131L38.556 39.7769C37.4241 39.4128 36.2868 40.3197 36.3899 41.5043L36.7681 45.8521C36.9009 47.3778 35.0756 48.2568 33.9655 47.2018L30.8021 44.1952C29.9402 43.3761 28.5221 43.6998 28.101 44.8117L26.5553 48.8931C26.013 50.3253 23.987 50.3253 23.4447 48.8931L21.899 44.8117C21.4779 43.6998 20.0598 43.3761 19.1979 44.1952L16.0345 47.2018C14.9244 48.2568 13.0991 47.3778 13.2319 45.8521L13.6101 41.5043C13.7132 40.3197 12.5759 39.4128 11.444 39.7769L7.28934 41.1131C5.83149 41.582 4.56835 39.9981 5.34988 38.6811L7.57713 34.9279C8.18394 33.9054 7.55283 32.5949 6.37505 32.4318L2.05203 31.8331C0.535106 31.623 0.0842946 29.6478 1.35984 28.8004L4.99497 26.3853C5.98534 25.7273 5.98534 24.2727 4.99497 23.6147L1.35984 21.1996C0.0842962 20.3522 0.535104 18.377 2.05203 18.1669L6.37505 17.5682C7.55283 17.4051 8.18394 16.0946 7.57713 15.0721L5.34988 11.3189C4.56835 10.0019 5.83149 8.418 7.28934 8.88688L11.444 10.2231C12.5759 10.5872 13.7132 9.68029 13.6101 8.49574L13.2319 4.14788C13.0991 2.62224 14.9244 1.74322 16.0345 2.79821L19.1979 5.80479C20.0598 6.62391 21.4779 6.30025 21.899 5.18829L23.4447 1.10688Z" fill="#F97400"/>
</svg>
