<svg width="52" height="50" viewBox="0 0 52 50" fill="none" xmlns="http://www.w3.org/2000/svg">
<g clip-path="url(#clip0_54_277)">
<path d="M2.38986 25C2.38986 12.2951 13.131 2 26.3899 2C39.6472 2 50.3899 12.2951 50.3899 25C50.3899 37.7049 39.6487 48 26.3899 48C13.1326 48 2.38986 37.7049 2.38986 25Z" stroke="white" stroke-width="2"/>
<path d="M37.3228 17.6436L33.8973 32.9139C33.6441 33.9966 32.9628 34.259 32.0121 33.7495L26.7944 30.1115L24.2777 32.4044C24.0004 32.6668 23.7647 32.8897 23.2261 32.8897L23.5964 27.8658L33.2658 19.6014C33.6872 19.2511 33.1728 19.0524 32.6167 19.4027L20.6664 26.5194L15.5159 24.9985C14.397 24.6648 14.3714 23.94 15.7516 23.4305L35.874 16.0896C36.8085 15.7711 37.6244 16.3048 37.3215 17.6423L37.3228 17.6436Z" fill="white"/>
</g>
<defs>
<clipPath id="clip0_54_277">
<rect width="51" height="50" fill="white" transform="translate(0.694916)"/>
</clipPath>
</defs>
</svg>
