<svg width="52" height="50" viewBox="0 0 52 50" fill="none" xmlns="http://www.w3.org/2000/svg">
<g clip-path="url(#clip0_54_281)">
<path d="M2.38986 25C2.38986 12.2951 13.131 2 26.3899 2C39.6472 2 50.3899 12.2951 50.3899 25C50.3899 37.7049 39.6487 48 26.3899 48C13.1326 48 2.38986 37.7049 2.38986 25Z" stroke="white" stroke-width="2"/>
<path fill-rule="evenodd" clip-rule="evenodd" d="M40.3119 19.1511C40.5194 18.4881 40.3119 18 39.3181 18H36.0369C35.202 18 34.817 18.4214 34.6082 18.8864C34.6082 18.8864 32.9395 22.7673 30.5758 25.2881C29.8108 26.0191 29.4633 26.2511 29.0458 26.2511C28.8371 26.2511 28.5234 26.0191 28.5234 25.3549V19.1511C28.5234 18.3546 28.2934 18 27.5984 18H22.4385C21.9172 18 21.6035 18.3691 21.6035 18.7201C21.6035 19.4741 22.786 19.649 22.9072 21.7716V26.3834C22.9072 27.3949 22.716 27.5783 22.2985 27.5783C21.186 27.5783 18.4798 23.6792 16.8736 19.2179C16.5624 18.3497 16.2474 18 15.4086 18H12.1249C11.1875 18 11 18.4214 11 18.8864C11 19.7146 12.1124 23.8286 16.1811 29.2698C18.8936 32.9855 22.7122 35 26.1909 35C28.2771 35 28.5346 34.5531 28.5346 33.7821V30.9734C28.5346 30.0785 28.7321 29.9 29.3933 29.9C29.8808 29.9 30.7146 30.1331 32.662 31.9242C34.887 34.048 35.2532 35 36.5057 35H39.7869C40.7243 35 41.1943 34.5531 40.9243 33.6691C40.6268 32.79 39.5644 31.5138 38.1557 29.9996C37.3907 29.1374 36.2432 28.2085 35.8944 27.7434C35.4082 27.1472 35.547 26.8813 35.8944 26.3506C35.8944 26.3506 39.8944 20.9762 40.3106 19.1511H40.3119Z" fill="white"/>
</g>
<defs>
<clipPath id="clip0_54_281">
<rect width="51" height="50" fill="white" transform="translate(0.694916)"/>
</clipPath>
</defs>
</svg>
